<svg id="Capa_1" enable-background="new 0 0 512 512" height="512" viewBox="0 0 512 512" width="512" xmlns="http://www.w3.org/2000/svg"><g><path d="m470.71 115.613h-429.42c-9.295 0-17.873 3.072-24.774 8.255l-9.014 33.036v189.894c0 22.804 18.486 41.291 41.29 41.291h421.918l33.035-8.216c5.184-6.901 8.255-15.479 8.255-24.775v-198.195c0-22.804-18.486-41.29-41.29-41.29z" fill="#ffdc78"/><path d="m470.71 363.355h-429.42c-4.561 0-8.258-3.697-8.258-8.258v-198.194c0-4.561 3.697-8.258 8.258-8.258h429.42c4.561 0 8.258 3.697 8.258 8.258v198.194c0 4.561-3.698 8.258-8.258 8.258z" fill="#fb5f7a"/><path d="m445.935 346.839h-379.87c-9.122 0-16.516-7.395-16.516-16.516v-148.646c0-9.122 7.395-16.516 16.516-16.516h379.871c9.122 0 16.516 7.395 16.516 16.516v148.645c0 9.122-7.395 16.517-16.517 16.517z" fill="#ff7e8e"/><g fill="#ffdc78"><path d="m132.032 249.188c4.086-5.05 6.638-11.388 6.638-18.373 0-16.21-13.194-29.399-29.403-29.399h-26.686c-4.565 0-8.258 3.698-8.258 8.258v91.879c0 2.198.879 4.302 2.435 5.851 1.54 1.544 3.637 2.407 5.823 2.407h.04s24.54-.109 31.306-.109c18.194 0 32.992-14.798 32.992-32.988 0-11.503-5.936-21.62-14.887-27.526zm-22.766-31.256c7.105 0 12.887 5.778 12.887 12.883s-5.782 12.883-12.887 12.883c-2.088 0-18.427.028-18.427.028v-25.794zm4.661 75.254c-4.21 0-15.29.04-23.089.073v-32.984c2.556-.011 23.089-.032 23.089-.032 9.089 0 16.476 7.391 16.476 16.472 0 9.079-7.387 16.471-16.476 16.471z"/><path d="m326.573 202.988c-3.847-2.496-8.944-1.399-11.427 2.415l-22.194 34.097-22.427-34.343c-2.484-3.819-7.605-4.883-11.427-2.399-3.815 2.496-4.895 7.613-2.395 11.431l27.993 42.875-.114 44.468c-.008 4.56 3.677 8.266 8.234 8.278h.024c4.548 0 8.25-3.681 8.258-8.238l.115-44.494 27.772-42.667c2.491-3.822 1.41-8.935-2.412-11.423z"/><path d="m233.218 201.415c-4.565 0-8.258 3.698-8.258 8.258v63.157c0 4.911-1.323 12.109-12.766 17.871-3.419 1.722-7.258 2.593-11.419 2.593-.008 0-.024 0-.04 0-4.629-.004-8.831-1.198-12.5-3.544-7.532-4.806-10.605-9.69-10.605-16.851v-63.226c0-4.56-3.694-8.258-8.258-8.258s-8.258 3.698-8.258 8.258v63.226c0 12.875 5.968 22.944 18.226 30.766 6.363 4.069 13.548 6.137 21.379 6.145h.056c6.758 0 13.097-1.464 18.847-4.355 18.065-9.101 21.855-22.766 21.855-32.625v-63.157c-.001-4.56-3.695-8.258-8.259-8.258z"/><path d="m374.126 242.134 14.552 36.923 34.86-31.894-36.344-22.715z"/></g><path d="m16.516 355.097v-231.229c-9.974 7.537-16.516 19.571-16.516 33.035v198.194c0 22.804 18.486 41.29 41.29 41.29h429.42c13.465 0 25.498-6.542 33.034-16.516h-462.454c-13.682 0-24.774-11.092-24.774-24.774z" fill="#ffcc5c"/><path d="m426.473 248.997-2.934-1.834-23.71 14.818c-5.5 3.438-12.635-.517-12.635-7.003v-30.53l-2.946-1.841c-5.5-3.438-12.635.517-12.635 7.003v52.781c0 6.486 7.135 10.441 12.635 7.003l42.225-26.391c5.175-3.235 5.175-10.772 0-14.006z" fill="#ffcc5c"/></g></svg>