<svg id="Capa_1" enable-background="new 0 0 512 512" height="512" viewBox="0 0 512 512" width="512" xmlns="http://www.w3.org/2000/svg"><g><path d="m417.405 425.821-65.022-65.021c-9.675-9.675-25.361-9.675-35.036 0-22.575 22.575-85.319-3.569-140.144-58.393s-80.968-117.569-58.394-140.144c9.675-9.675 9.675-25.361 0-35.036l-64.662-64.663c-9.675-9.675-25.361-9.675-35.036 0v.001c-41.924 41.925 14.615 157.57 127.489 270.444 112.875 112.874 228.88 169.773 270.805 127.849 9.675-9.675 9.675-25.361 0-35.037z" fill="#ff7e8e"/><path d="m478.968 50.19h-222.968c-6.015 0-11.655 1.608-16.513 4.417l-8.291 28.615v140.644c0 18.243 14.789 33.032 33.032 33.032h140.307v54.129l8.368 3.421 49.548-49.548h16.516c18.243 0 33.032-14.79 33.032-33.032v-148.646c.001-18.243-14.788-33.032-33.031-33.032z" fill="#ff7e8e"/><g fill="#ffdc78"><path d="m382.395 137.706-18.379-48.685c-1.452-3.524-4.855-5.798-8.661-5.798-.008 0-.008 0-.008 0-3.815.004-7.218 2.286-8.742 6.012l-18.452 48.448c-1.621 4.262.516 9.032 4.782 10.657 4.25 1.605 9.024-.52 10.653-4.778l2.571-6.75h18.245l2.539 6.726c1.25 3.306 4.387 5.347 7.726 5.347.968 0 1.96-.173 2.919-.536 4.267-1.61 6.42-6.376 4.807-10.643zm-29.945-17.411 2.873-7.544 2.848 7.544z"/><path d="m274.839 230.67c-4.565 0-8.258-3.698-8.258-8.258v-49.048c0-3.613 2.347-6.806 5.798-7.883 3.444-1.085 7.202.214 9.258 3.19l19.145 27.726-.226-23.044c-.04-4.56 3.621-8.294 8.177-8.339h.081c4.524 0 8.218 3.645 8.258 8.177l.46 47.484c0 4.339-2.468 7.859-6.282 9.052-3.742 1.149-7.75-.323-10.04-3.649l-18.113-26.222v22.556c0 4.561-3.694 8.258-8.258 8.258z"/><path d="m451.129 148.88c-5.5 0-5.863-.06-6.46-.165-3.968-.677-6.863-4.117-6.863-8.137v-49.097c0-4.56 3.694-8.258 8.258-8.258s8.258 3.698 8.258 8.258v40.879c4.363-.012 8.903-.04 8.903-.04h.048c4.54 0 8.234 3.665 8.258 8.214.024 4.56-3.653 8.278-8.21 8.302-5.676.032-9.539.044-12.192.044z"/><path d="m295.71 148.88c-18.105 0-32.831-14.726-32.831-32.831 0-18.101 14.726-32.827 32.831-32.827 6.581 0 12.927 1.94 18.355 5.613 3.782 2.556 4.774 7.69 2.218 11.468-2.548 3.774-7.694 4.766-11.46 2.218-2.694-1.819-5.847-2.782-9.113-2.782-8.992 0-16.315 7.319-16.315 16.31 0 8.996 7.323 16.315 16.315 16.315 3.226 0 5.911-.94 7.992-2.79.403-.355.79-.766 1.169-1.21 2.919-3.472 8.137-3.94 11.629-1 3.492 2.935 3.944 8.145 1 11.637-.863 1.032-1.798 1.992-2.79 2.887-5.146 4.581-11.71 6.992-19 6.992z"/><path d="m464.685 165.263c-4.532-.859-8.815 2.016-9.71 6.488l-4.065 20.407-6.565-21.319-.175.054c-.796-2.478-2.603-4.59-5.276-5.417-4.379-1.375-8.984 1.093-10.331 5.444l-6.573 21.242-4.056-20.496c-.887-4.472-5.274-7.403-9.71-6.496-4.476.887-7.379 5.23-6.5 9.706l9.581 48.403c.081.383.185.762.315 1.129 1.315 3.75 4.863 6.258 8.831 6.258h.048c3.992-.016 7.532-2.569 8.887-6.565l7.06-22.804 7.142 23.167c1.339 3.722 4.871 6.206 8.823 6.206.024 0 .048-.004.081-.004 3.976-.032 7.508-2.585 8.782-6.351.121-.343.218-.69.282-1.044l9.613-48.294c.896-4.476-2.008-8.823-6.484-9.714z"/><path d="m361.137 230.67c-18.097 0-32.823-14.726-32.823-32.831 0-18.101 14.726-32.827 32.823-32.827 18.105 0 32.831 14.726 32.831 32.827 0 18.105-14.726 32.831-32.831 32.831zm0-49.141c-8.992 0-16.306 7.319-16.306 16.31 0 8.996 7.315 16.315 16.306 16.315 8.992 0 16.315-7.319 16.315-16.315 0-8.991-7.323-16.31-16.315-16.31z"/><path d="m406.952 148.88c-5.5 0-5.863-.06-6.46-.165-3.968-.677-6.863-4.117-6.863-8.137v-49.097c0-4.56 3.694-8.258 8.258-8.258s8.258 3.698 8.258 8.258v40.879c4.363-.012 8.903-.04 8.903-.04h.048c4.54 0 8.234 3.665 8.258 8.214.024 4.56-3.653 8.278-8.21 8.302-5.676.032-9.539.044-12.192.044z"/></g><path d="m396.387 248.384h-140.387c-9.122 0-16.516-7.395-16.516-16.516l.003-177.261c-9.833 5.695-16.519 16.428-16.519 28.615v148.645c0 18.243 14.789 33.032 33.032 33.032h140.387v46.128c0 7.357 8.895 11.042 14.098 5.839l2.419-2.419v-49.547c-.001-9.122-7.395-16.516-16.517-16.516z" fill="#fb5f7a"/><path d="m439.973 413.354-70.072-70.072c-9.675-9.675-25.361-9.675-35.036 0l-17.518 17.518 93.429 93.43c-5.882 5.882-15.127 8.864-27.478 8.864-55.101 0-147.311-55.188-229.453-137.33-113.559-113.56-158.845-226.549-128.465-256.931l93.429 93.43 17.518-17.518c9.675-9.675 9.675-25.361 0-35.037l-70.072-70.071c-2.047-2.047-4.361-3.666-6.832-4.847l-45.721 22.365c-41.925 41.925 15.591 167.414 128.465 280.288 112.875 112.875 238.364 170.39 280.288 128.466l22.362-45.719c-1.181-2.473-2.797-4.789-4.844-6.836z" fill="#fb5f7a"/><path d="m59.423 34.79c-9.202-4.376-20.587-2.77-28.204 4.847l-17.517 17.518 11.678 11.678z" fill="#f74455"/><path d="m410.776 454.229 11.679 11.679 17.518-17.518c7.617-7.616 9.22-18.999 4.844-28.201z" fill="#f74455"/></g></svg>