<svg id="Capa_1" enable-background="new 0 0 512 512" height="512" viewBox="0 0 512 512" width="512" xmlns="http://www.w3.org/2000/svg"><g><path d="m269.114 443.144-94.154 4.235 23.233 59.057c7.509 3.567 15.909 5.563 24.775 5.563 31.926 0 57.806-25.881 57.806-57.806z" fill="#ffcc5c"/><path d="m231.226 454.194h49.548c0-32.252-26.413-58.335-58.787-57.798-30.175.5-55.702 25.509-56.788 55.669-.862 23.949 12.883 44.803 32.994 54.372v-19.21c.001-18.244 14.79-33.033 33.033-33.033z" fill="#ffbe45"/><path d="m222.968 132.129c-22.766 0-41.29-18.524-41.29-41.29s18.524-41.29 41.29-41.29 41.29 18.524 41.29 41.29-18.524 41.29-41.29 41.29zm0-66.064c-13.661 0-24.774 11.113-24.774 24.774s11.113 24.774 24.774 24.774 24.774-11.113 24.774-24.774-11.113-24.774-24.774-24.774z" fill="#ffeca8"/><path d="m412.903 417.486c0-10.749-6.916-20.336-17.18-23.527-23.536-7.316-40.626-29.268-40.626-55.21v-82.749c0-72.959-59.176-131.923-132.129-131.947l-6.414 5.508c-69.976 3.357-106.1 60.984-106.1 131.792v143.674l29.321 24.393h264.87c4.561 0 8.258-3.697 8.258-8.258z" fill="#ffdc78"/><path d="m148.645 404.645v-189.935c0-36.064 25.686-66.129 59.762-72.897 8.473-1.683 14.56-9.122 14.56-17.76-72.953.023-132.129 58.988-132.129 131.947v82.749c0 25.943-17.09 47.894-40.625 55.21-10.265 3.191-17.181 12.779-17.181 23.528v12.101c0 4.561 3.697 8.258 8.258 8.258h363.355c4.561 0 8.258-3.697 8.258-8.258v-8.426h-247.742c-9.121-.001-16.516-7.395-16.516-16.517z" fill="#ffcc5c"/><path d="m301.895 90.839c0 50.169 36.065 86.135 86.234 86.135 29.141 0 55.078-9.019 71.7-30.354 11.994-15.395 19.139-34.754 19.139-55.781 0-50.169-40.67-90.839-90.839-90.839-21.035 0-40.4 7.15-55.797 19.151-21.326 16.623-30.437 42.554-30.437 71.688z" fill="#ff7e8e"/><path d="m394.169 140.044c-4.565 0-8.258-3.698-8.258-8.258v-72.185h-8.944c-4.565 0-8.258-3.698-8.258-8.258s3.694-8.258 8.258-8.258h17.202c4.565 0 8.258 3.698 8.258 8.258v80.444c0 4.56-3.693 8.257-8.258 8.257z" fill="#fff"/><path d="m404.645 165.161c-50.169 0-90.839-40.67-90.839-90.839 0-20.708 6.859-39.892 18.526-55.171-21.338 16.617-35.042 42.547-35.042 71.688 0 50.169 40.67 90.839 90.839 90.839 29.14 0 55.083-13.72 71.7-35.058-15.279 11.666-34.476 18.541-55.184 18.541z" fill="#fb5f7a"/></g></svg>