<svg id="Capa_1" enable-background="new 0 0 512 512" height="512" viewBox="0 0 512 512" width="512" xmlns="http://www.w3.org/2000/svg"><g><circle cx="228.699" cy="107.355" fill="#ffcbd0" r="107.355"/><circle cx="228.699" cy="107.355" fill="#ff97a2" r="82.581"/><circle cx="228.699" cy="107.355" fill="#ffcbd0" r="66.065"/><circle cx="228.699" cy="107.355" fill="#fff" r="49.548"/><path d="m379.169 256.031c-3.552-.254-6.962.236-10.083 1.338l-16.516 23.37v-7.742c0-13.068-9.915-24.291-22.949-25.224-3.552-.254-6.962.235-10.083 1.338l-16.516 23.371v-7.742c0-13.068-9.915-24.291-22.949-25.224-3.553-.254-6.961.241-10.082 1.344l-16.517 23.364v-156.352c0-13.068-9.915-24.291-22.95-25.225-3.553-.254-6.962.239-10.083 1.342l-16.516 251.84-43.333-72.222c-8.52-14.202-26.282-19.941-41.56-13.271 0 0 0 0-.001.001l-1.358 20.731 101.036 230.831h144.778l16.773-6.426 9.794-55.502c8.027-45.484 12.063-91.582 12.063-137.769v-20.947c.001-13.068-9.913-24.291-22.948-25.224z" fill="#ffdc98"/><g fill="#ffcd89"><path d="m234.059 495.419c-6.624-.002-12.606-3.962-15.195-10.059l-99.832-235.024c-7.804 3.476-11.198 12.828-7.884 20.731l96.788 230.803c2.573 6.136 8.577 10.129 15.231 10.129h140.321c8.014 0 14.872-5.753 16.265-13.645l.509-2.882z"/><path d="m220.441 346.839v-262.851c-9.612 3.406-16.516 12.587-16.516 23.367v239.484c0 4.561 3.697 8.258 8.258 8.258 4.56 0 8.258-3.697 8.258-8.258z"/><path d="m352.57 280.739v16.551c0 4.56 3.697 8.258 8.258 8.258s8.258-3.698 8.258-8.258v-39.921c-9.612 3.406-16.516 12.59-16.516 23.37z"/><path d="m311.279 297.29c4.561 0 8.258-3.698 8.258-8.258v-39.922c-9.612 3.406-16.516 12.591-16.516 23.37v16.551c0 4.562 3.697 8.259 8.258 8.259z"/><path d="m261.731 289.032c4.561 0 8.258-3.698 8.258-8.258v-39.917c-9.612 3.406-16.516 12.586-16.516 23.366v16.551c0 4.561 3.697 8.258 8.258 8.258z"/></g></g></svg>