<svg id="Capa_1" enable-background="new 0 0 512 512" height="512" viewBox="0 0 512 512" width="512" xmlns="http://www.w3.org/2000/svg"><g><path d="m462.452 32.958h-412.904c-12.689 0-24.266 4.768-33.032 12.612l-9.038 36.936v256.033c0 27.365 22.184 49.549 49.548 49.549h282.787l87.964 87.533 9.233-4.232c.43-1.21.668-2.538.668-3.964v-71.111h24.774c27.365 0 49.548-22.184 49.548-49.549v-264.259c0-27.365-22.183-49.548-49.548-49.548z" fill="#ff7e8e"/><g fill="#ffdc78"><path d="m199.242 194.01c4.218 1.609 9.024-.52 10.653-4.778l6.896-18.105h46.153l6.822 18.081c1.25 3.306 4.387 5.347 7.726 5.347.968 0 1.952-.173 2.919-.536 4.266-1.609 6.419-6.375 4.806-10.641l-35.581-94.278c-1.613-3.923-5.395-6.46-9.637-6.46s-8.024 2.536-9.718 6.661l-35.823 94.052c-1.619 4.262.518 9.032 4.784 10.657zm40.734-83.754 16.736 44.355h-33.63z"/><path d="m156.403 231.845c-.024 0-.056 0-.081 0-4.556.044-8.218 3.778-8.177 8.339l.677 70.097-51.581-74.69c-2.056-2.98-5.798-4.262-9.258-3.19-3.452 1.077-5.798 4.27-5.798 7.883v95.218c0 4.56 3.694 8.258 8.258 8.258s8.258-3.698 8.258-8.258v-68.73l49.331 71.427c2.565 3.718 6.806 5.335 10.782 4.077 4.089-1.278 6.734-5.202 6.734-10.073l-.887-92.181c-.04-4.532-3.734-8.177-8.258-8.177z"/><path d="m323.589 194.554c5.056 0 12.427-.024 23.234-.085 4.556-.024 8.234-3.742 8.21-8.302-.024-4.548-3.718-8.214-8.258-8.214-.016 0-.032 0-.048 0-9.008.052-18.758.085-25.097.101v-87.157c0-4.56-3.694-8.258-8.258-8.258s-8.258 3.698-8.258 8.258v95.315c0 4.02 2.895 7.46 6.863 8.137.579.1 1.184.205 11.612.205z"/><path d="m381.008 194.349c.581.101 1.185.206 11.613.206 5.056 0 12.427-.024 23.234-.085 4.556-.024 8.234-3.742 8.21-8.302-.024-4.548-3.718-8.214-8.258-8.214-.016 0-.032 0-.048 0-9.008.052-18.758.085-25.097.101v-87.158c0-4.56-3.694-8.258-8.258-8.258s-8.258 3.698-8.258 8.258v95.315c-.001 4.02 2.894 7.459 6.862 8.137z"/><path d="m164.839 167.51c-.952 1.125-1.968 2.177-3.048 3.145-5.492 4.895-12.452 7.379-20.685 7.379-21.75 0-39.444-17.694-39.444-39.44s17.694-39.44 39.444-39.44c7.903 0 15.524 2.327 22.048 6.73 3.79 2.56 8.919 1.556 11.468-2.222 2.548-3.778 1.556-8.911-2.226-11.464-9.258-6.254-20.081-9.56-31.29-9.56-30.855 0-55.96 25.101-55.96 55.956s25.105 55.956 55.96 55.956c12.234 0 23.185-4 31.677-11.569 1.669-1.488 3.234-3.105 4.685-4.835 2.944-3.488 2.492-8.698-1-11.637s-8.702-2.471-11.629 1.001z"/><path d="m424.395 232.179c-4.516-.863-8.823 2.02-9.71 6.488l-13.887 69.762-21.798-70.758-.199.061c-.81-2.443-2.607-4.521-5.253-5.339-4.371-1.371-8.984 1.093-10.331 5.448l-21.847 70.593-13.831-69.931c-.887-4.48-5.266-7.391-9.71-6.5-4.476.883-7.379 5.23-6.5 9.702l18.589 93.964c.081.387.185.77.315 1.141 1.468 4.161 5.403 6.948 9.815 6.948h.048c4.435-.02 8.371-2.851 9.879-7.278l21.137-68.299 21.161 68.662c1.484 4.145 5.419 6.915 9.815 6.915h.089c4.427-.036 8.355-2.879 9.766-7.077.113-.339.21-.681.274-1.028l18.661-93.758c.896-4.478-2.007-8.825-6.483-9.716z"/><path d="m240.573 231.845c-30.855 0-55.96 25.105-55.96 55.96s25.105 55.956 55.96 55.956 55.952-25.101 55.952-55.956-25.098-55.96-55.952-55.96zm0 95.399c-21.75 0-39.444-17.694-39.444-39.44 0-21.75 17.694-39.444 39.444-39.444 21.742 0 39.435 17.694 39.435 39.444 0 21.746-17.693 39.44-39.435 39.44z"/></g><g><path d="m338.578 379.796h-289.03c-18.243 0-33.032-14.789-33.032-33.032v-301.194c-10.115 9.071-16.516 22.28-16.516 36.936v264.258c0 27.365 22.184 49.548 49.548 49.548h289.032l79.308 79.308c6.297 6.297 16.445 3.33 19.121-4.232l-86.753-86.755c-3.097-3.097-7.298-4.837-11.678-4.837z" fill="#fb5f7a"/></g></g></svg>