<svg id="Capa_1" enable-background="new 0 0 512 512" height="512" viewBox="0 0 512 512" width="512" xmlns="http://www.w3.org/2000/svg"><g><path d="m182.099 311.405-2.43-9.511-27.184-6.328 16.047 35.974c9.463-1.256 16.01-10.574 13.567-20.135z" fill="#fb5f7a"/><path d="m130.032 266.668v47.73l4.801 17.286h32.006c.598 0 1.693-.143 1.693-.143l-5.644-20.32c-1.532-5.518 2.964-10.883 8.658-10.281 2.732.289 5.439.609 8.122.954l-9.001-35.227h-40.635z" fill="#f74455"/><path d="m147.153 315.43-41.257-9.113 27.366 105.904 12.058 11.313c.421-.117.841-.253 1.259-.406l20.666-7.591c3.974-1.46 6.161-5.725 5.028-9.804z" fill="#e8e6e8"/><path d="m147.153 315.43-4.497-16.254-20.905-8.388h-39.746l7.392 24.642h9.03l26.887 96.792c2.421 8.714 11.454 13.688 20.007 11.313l-27.169-97.803c-1.438-5.178 2.456-10.302 7.83-10.302z" fill="#d7d4d7"/><path d="m142.656 299.176-4.497-16.254v-8.127h-65.016v24.381c0 8.977 7.277 16.254 16.254 16.254 0-8.977 7.277-16.254 16.254-16.254z" fill="#c6c1c6"/><path d="m24.381 191.95c-13.465 0-24.381 10.916-24.381 24.381v19.403c0 13.465 10.916 24.381 24.381 24.381h24.381v-68.165z" fill="#f74455"/><path d="m138.159 169.144-4.245 97.524c149.529 30.636 207.419 66.872 207.419 66.872l16.254-16.254v-196.904l-16.254-16.254s-81.269 65.016-203.174 65.016z" fill="#e8e6e8"/><path d="m138.159 266.668-8.127 8.127 8.127 8.127c121.905 0 203.175 65.016 203.175 65.016l16.254-16.254v-35.217l-16.254 10.836c-.001 0-81.27-40.635-203.175-40.635z" fill="#d7d4d7"/><path d="m55.314 169.144c-2.276 0-4.474.333-6.548.954l-6.726 21.852v59.959c0 12.596 10.211 22.807 22.806 22.807h54.733l18.579-8.048v-97.524z" fill="#ff7e8e"/><path d="m390.095 197.588-16.254-4.063-16.254 32.508 16.254 32.508 20.196-5.049c7.236-1.809 12.312-8.311 12.312-15.769v-3.563z" fill="#fb5f7a"/><path d="m438.452 274.386c-2.079 0-4.159-.794-5.746-2.381-3.175-3.175-3.175-8.317 0-11.492 19.008-19.012 19.008-49.948 0-68.96-3.175-3.175-3.175-8.317 0-11.492s8.317-3.175 11.492 0c25.349 25.349 25.349 66.595 0 91.944-1.587 1.587-3.666 2.381-5.746 2.381z" fill="#ffcbd0"/><path d="m472.929 308.866c-2.079 0-4.159-.794-5.746-2.381-3.175-3.175-3.175-8.317 0-11.492 18.421-18.421 28.564-42.909 28.564-68.96s-10.143-50.54-28.564-68.96c-3.175-3.175-3.175-8.317 0-11.492s8.317-3.175 11.492 0c21.492 21.487 33.325 50.059 33.325 80.452s-11.833 58.964-33.325 80.452c-1.588 1.587-3.667 2.381-5.746 2.381z" fill="#ffe5e7"/><path d="m357.587 87.874-7.348 16.254v225.32l23.602-14.019v-211.301c0-8.977-7.277-16.254-16.254-16.254z" fill="#d7d4d7"/><path d="m357.587 299.176v-211.302c-8.977 0-16.254 7.277-16.254 16.254v243.81c0 8.977 7.277 16.254 16.254 16.254s16.254-7.277 16.254-16.254v-32.508c-8.976 0-16.254-7.278-16.254-16.254z" fill="#c6c1c6"/><path d="m48.762 242.287.004-72.189c-9.379 2.829-16.258 11.55-16.258 21.852v68.165c0 12.596 10.211 22.807 22.807 22.807h82.844v-16.254h-65.016c-13.465 0-24.381-10.916-24.381-24.381z" fill="#fb5f7a"/><path d="m394.038 198.574-3.943-.986v20.317c0 8.977 7.277 16.254 16.254 16.254v-19.817c0-7.458-5.075-13.959-12.311-15.768z" fill="#ff7e8e"/></g></svg>