<svg id="Capa_1" enable-background="new 0 0 512 512" height="512" viewBox="0 0 512 512" width="512" xmlns="http://www.w3.org/2000/svg"><g><path d="m385.497 0h-282.623c-12.774 0-24.426 4.802-33.25 12.7l-8.394 37.175v224.484c0 27.545 22.33 49.875 49.875 49.875h274.391l37.173-8.357c7.899-8.824 12.702-20.478 12.702-33.252v-232.75c0-27.545-22.329-49.875-49.874-49.875z" fill="#ffdc78"/><path d="m102.874 315.873c-18.363 0-33.25-14.886-33.25-33.25v-269.923c-10.182 9.131-16.625 22.422-16.625 37.175v232.748c0 27.545 22.33 49.875 49.875 49.875h282.623c14.753 0 28.041-6.441 37.173-16.622z" fill="#ffcc5c"/><path d="m385.497 299.248h-282.623c-9.182 0-16.625-7.443-16.625-16.625v-232.748c0-9.182 7.443-16.625 16.625-16.625h282.623c9.182 0 16.625 7.443 16.625 16.625v232.748c-.001 9.182-7.444 16.625-16.625 16.625z" fill="#fb5f7a"/><path d="m119.498 282.623h249.373c9.182 0 16.625-7.443 16.625-16.625v-199.498c0-9.182-7.443-16.625-16.625-16.625h-249.373c-9.182 0-16.625 7.443-16.625 16.625v199.499c.001 9.181 7.444 16.624 16.625 16.624z" fill="#ff7e8e"/><g fill="#ffdc78"><path d="m183.05 159.597c3.797-4.851 6.155-10.878 6.155-17.502 0-15.756-12.818-28.574-28.574-28.574h-25.579c-4.595 0-8.312 3.722-8.312 8.312v88.056c0 2.212.885 4.331 2.452 5.889 1.55 1.555 3.661 2.423 5.861 2.423h.041s23.517-.106 30.003-.106c17.656 0 32.016-14.364 32.016-32.016-.002-11.001-5.585-20.718-14.063-26.482zm-22.42-29.451c6.592 0 11.949 5.362 11.949 11.949s-5.358 11.949-11.949 11.949c-1.924 0-17.266.024-17.266.024v-23.923h17.266zm4.465 71.325c-3.97 0-14.287.041-21.731.069v-30.817c2.52-.01 21.731-.03 21.731-.03 8.483 0 15.391 6.904 15.391 15.387 0 8.487-6.908 15.391-15.391 15.391z"/><path d="m369.099 115.092c-3.872-2.512-9.002-1.408-11.503 2.431l-20.935 32.166-21.163-32.401c-2.5-3.84-7.655-4.915-11.503-2.415-3.84 2.512-4.927 7.663-2.411 11.507l26.766 40.99-.108 42.499c-.008 4.591 3.702 8.321 8.288 8.333h.024c4.578 0 8.304-3.71 8.312-8.292l.108-42.527 26.551-40.792c2.509-3.849 1.422-8.995-2.426-11.499z"/><path d="m279.416 113.521c-4.595 0-8.312 3.722-8.312 8.312v60.529c0 4.603-1.25 11.344-12.022 16.771-3.223 1.624-6.851 2.443-10.78 2.443 0 0-.008 0-.016 0-4.416-.008-8.264-1.1-11.771-3.336-7.087-4.53-9.977-9.112-9.977-15.817v-60.59c0-4.591-3.718-8.312-8.312-8.312-4.595 0-8.312 3.722-8.312 8.312v60.59c0 12.481 5.772 22.234 17.656 29.828 6.153 3.933 13.118 5.938 20.692 5.95h.032c6.559 0 12.696-1.417 18.265-4.217 17.493-8.812 21.171-22.06 21.171-31.622v-60.529c-.002-4.59-3.72-8.312-8.314-8.312z"/></g><path d="m454.578 374.676-128.814-89.769 2.696 162.692 48.434-38.878 45.013 94.696 31.292-26.744-49.563-72.425 48.611-14.801c6.638-2.02 8.024-10.804 2.331-14.771z" fill="#615260"/><path d="m457.547 483.028-4.348-6.354-18.775 10.84c-4.193 2.421-9.558.76-11.652-3.605l-38.411-80.106c-2.427-5.062-9.07-6.312-13.171-2.479l-20.385 19.05c-5.069 4.738-13.369 1.546-13.958-5.368l-11.084-130.099-3.204-2.233c-5.779-4.027-13.634.508-13.035 7.526l13.667 160.332c.589 6.913 8.889 10.105 13.958 5.367l37.123-34.698 41.269 86.078c2.093 4.366 7.459 6.026 11.652 3.605l27.649-15.963c4.194-2.421 5.439-7.898 2.705-11.893z" fill="#4e3d4d"/></g></svg>