<svg id="Capa_1" enable-background="new 0 0 512 512" height="512" viewBox="0 0 512 512" width="512" xmlns="http://www.w3.org/2000/svg"><g><path d="m427.058 191.186c0 42.14-13.633 81.095-36.73 112.696-34.776 47.582-91.007 72.477-154.456 72.477-105.589 0-183.408-79.584-183.408-185.173 0-63.432 23.113-119.65 70.673-154.428 31.608-23.114 70.578-36.758 112.735-36.758 105.589 0 191.186 85.597 191.186 191.186z" fill="#ffdc78"/><path d="m377.961 292.385c22.774-31.805 35.134-71.545 31.988-114.346-6.271-85.32-75.609-154.659-160.93-160.93-42.801-3.146-82.542 9.213-114.346 31.988-7.766 5.562-17.524-4.094-11.905-11.818.106-.146.263-.375.369-.521-53.188 38.932-85.583 104.733-77.108 177.405 10.124 86.81 80.054 156.741 166.863 166.866 72.673 8.477 138.504-23.958 177.436-77.146-.146.106-.402.301-.548.408-7.725 5.618-17.38-4.14-11.819-11.906z" fill="#ffcc5c"/><circle cx="235.872" cy="191.186" fill="#ffa65a" r="157.936"/><circle cx="235.872" cy="191.186" fill="#ffbe63" r="141.311"/><path d="m462.89 374.676-128.814-89.769 2.696 162.692 48.434-38.878 45.013 94.696 31.292-26.744-49.563-72.425 48.611-14.801c6.637-2.02 8.024-10.804 2.331-14.771z" fill="#615260"/><path d="m465.859 483.028-4.348-6.354-18.775 10.84c-4.193 2.421-9.558.76-11.652-3.605l-38.411-80.106c-2.427-5.062-9.07-6.312-13.171-2.479l-20.385 19.05c-5.069 4.738-13.369 1.546-13.958-5.368l-11.084-130.099-3.204-2.233c-5.779-4.027-13.634.508-13.035 7.526l13.667 160.332c.589 6.913 8.889 10.105 13.958 5.367l37.123-34.698 41.269 86.078c2.093 4.366 7.459 6.026 11.652 3.605l27.649-15.963c4.194-2.421 5.439-7.898 2.705-11.893z" fill="#4e3d4d"/><path d="m255.711 182.456c-4.195-1.483-7.954-2.885-11.495-4.252v-56.926c10.857 1.664 17.479 7.201 17.948 7.618 3.377 3.077 8.605 2.845 11.706-.515 3.109-3.373 2.898-8.633-.479-11.746-.619-.573-11.499-10.284-29.175-12.192v-13.006c0-4.591-3.718-8.312-8.312-8.312s-8.312 3.722-8.312 8.312v13.671c-2.238.412-4.519.918-6.884 1.631-14.766 4.448-25.798 17.112-28.801 33.051-2.719 14.441 1.851 28.318 11.925 36.217 5.89 4.621 13.326 8.852 23.76 13.389v70.446c-10.54-.398-16.952-2.246-28.152-9.571-3.848-2.504-9.002-1.433-11.511 2.407-2.516 3.844-1.437 8.994 2.403 11.507 14.567 9.523 23.85 11.87 37.26 12.313v14.438c0 4.59 3.718 8.312 8.312 8.312s8.312-3.722 8.312-8.312v-15.068c24.715-3.831 39.161-23.715 42.285-42.299 3.881-23.067-8.206-43.13-30.79-51.113zm-41.619-19.531c-5.171-4.055-7.411-11.742-5.845-20.059 1.445-7.691 6.738-17.043 17.25-20.209.732-.22 1.381-.261 2.094-.44v48.842c-5.618-2.765-10.047-5.424-13.499-8.134zm56.02 67.887c-1.998 11.873-10.856 24.474-25.895 28.062v-62.906c1.94.713 3.863 1.422 5.958 2.163 17.697 6.254 21.901 20.984 19.937 32.681z" fill="#ffeca8"/></g></svg>