<svg id="Capa_1" enable-background="new 0 0 512.001 512.001" height="512" viewBox="0 0 512.001 512.001" width="512" xmlns="http://www.w3.org/2000/svg"><g><path d="m512.001 256.001c0 60.116-20.721 115.393-55.411 159.077-46.896 59.055-119.32 86.923-200.589 86.923-141.385 0-246-104.615-246-246 0-81.209 27.813-153.586 86.794-200.486 43.704-34.752 99.031-55.515 159.206-55.515 141.384.001 256 114.616 256 256.001z" fill="#ffdc78"/><path d="m444.372 403.818c35.767-45.478 55.42-104.213 50.312-167.646-9.322-115.774-103.08-209.533-218.854-218.855-63.433-5.108-122.169 14.545-167.647 50.312-7.687 6.046-17.895-3.875-11.83-11.547l.441-.566c-62.629 49.795-101.39 128.302-96.356 215.631 7.406 128.476 111.952 233.017 240.428 240.417 87.325 5.03 165.93-33.859 215.723-96.487-.189.15-.499.401-.689.551-7.672 6.065-17.573-4.123-11.528-11.81z" fill="#ffcc5c"/><circle cx="256.001" cy="256.001" fill="#fb5f7a" r="222.968"/><circle cx="256.001" cy="256.001" fill="#ff7e8e" r="206.452"/><g fill="#ffdc78"><g><path d="m193.258 183.814c3.507-4.609 5.67-10.289 5.67-16.515 0-15.129-12.306-27.44-27.435-27.44h-24.21c-4.565 0-8.258 3.698-8.258 8.258v83.355c0 2.198.879 4.302 2.435 5.851 1.548 1.544 3.637 2.407 5.823 2.407h.04s22.258-.101 28.395-.101c16.927 0 30.694-13.77 30.694-30.694 0-10.395-5.223-19.566-13.154-25.121zm-21.765-27.438c6.024 0 10.919 4.899 10.919 10.923 0 6.02-4.895 10.919-10.919 10.919-1.823 0-15.952.024-15.952.024v-21.867h15.952zm4.225 66.737c-3.685 0-13.161.036-20.177.065v-28.394c2.165-.009 20.177-.026 20.177-.026 7.815 0 14.177 6.359 14.177 14.177s-6.362 14.178-14.177 14.178z"/><path d="m369.049 141.412c-3.839-2.492-8.944-1.415-11.427 2.415l-19.5 29.948-19.702-30.173c-2.492-3.819-7.605-4.883-11.427-2.399-3.815 2.492-4.895 7.609-2.395 11.431l25.268 38.706-.099 40.112c-.008 4.56 3.677 8.266 8.234 8.278h.024c4.548 0 8.25-3.685 8.258-8.238l.099-40.14 25.079-38.518c2.491-3.817 1.411-8.934-2.412-11.422z"/><path d="m283.936 139.859c-4.565 0-8.258 3.698-8.258 8.258v57.298c0 4.25-1.161 10.484-11.169 15.528-2.984 1.508-6.347 2.27-10 2.27-.016 0-.024 0-.04 0-4.105-.004-7.677-1.016-10.927-3.097-6.581-4.202-9.266-8.448-9.266-14.641v-57.359c0-4.56-3.694-8.258-8.258-8.258s-8.258 3.698-8.258 8.258v57.359c0 11.956 5.524 21.298 16.887 28.56 5.895 3.77 12.565 5.685 19.798 5.694h.065c6.258 0 12.121-1.359 17.435-4.036 16.734-8.431 20.25-21.121 20.25-30.278v-57.298c-.001-4.56-3.694-8.258-8.259-8.258z"/></g><g><path d="m178.041 270.267c-.024 0-.048 0-.081 0-4.556.044-8.218 3.778-8.177 8.339l.556 57.851-43.137-62.468c-2.056-2.98-5.798-4.266-9.258-3.19-3.452 1.077-5.798 4.27-5.798 7.883v83.198c0 4.56 3.694 8.258 8.258 8.258s8.258-3.698 8.258-8.258v-56.706l41.21 59.673c2.516 3.625 6.669 5.169 10.597 3.944 4.008-1.258 6.605-5.073 6.605-9.802l-.774-80.544c-.041-4.533-3.735-8.178-8.259-8.178z"/><path d="m406.968 270.577c-4.524-.863-8.815 2.02-9.71 6.488l-11.331 56.907-17.831-57.879-.192.059c-.807-2.453-2.606-4.541-5.26-5.361-4.379-1.359-8.984 1.093-10.331 5.444l-17.871 57.754-11.282-57.065c-.887-4.48-5.266-7.415-9.71-6.5-4.468.883-7.379 5.23-6.5 9.702l16.234 82.101c.081.395.185.782.323 1.161 1.435 4.044 5.266 6.75 9.556 6.75.024 0 .048-.004.073-.004 4.315-.028 8.145-2.794 9.597-7.089l17.474-56.459 17.51 56.801c1.435 4.044 5.266 6.75 9.556 6.75.024 0 .048-.004.073-.004 4.306-.028 8.137-2.794 9.524-6.883.113-.339.21-.685.274-1.036l16.306-81.923c.897-4.476-2.006-8.823-6.482-9.714z"/><path d="m250.428 270.267c-27.532 0-49.935 22.399-49.935 49.935s22.403 49.935 49.935 49.935 49.927-22.399 49.927-49.935-22.395-49.935-49.927-49.935zm0 83.355c-18.427 0-33.419-14.992-33.419-33.419s14.992-33.419 33.419-33.419c18.419 0 33.411 14.992 33.411 33.419s-14.992 33.419-33.411 33.419z"/></g></g></g></svg>