<svg id="Capa_1" enable-background="new 0 0 512 512" height="512" viewBox="0 0 512 512" width="512" xmlns="http://www.w3.org/2000/svg"><g><path d="m396.387 478.968h-272.516c-4.561 0-8.258 3.697-8.258 8.258v8.258c0 4.56 3.697 8.258 8.258 8.258h272.516c4.561 0 8.258-3.698 8.258-8.258v-8.258c0-4.561-3.697-8.258-8.258-8.258z" fill="#b4e77a"/><path d="m403.979 222.968h-73.657v-214.71c0-4.561-3.697-8.258-8.258-8.258h-123.87l-10.417 229.534-72.543 6.851 136.615 178.416 13.439 3.008 145.139-181.424c4.327-5.408.477-13.417-6.448-13.417z" fill="#b4e77a"/><g fill="#94d77b"><path d="m140.387 495.484c-9.122 0-16.516-7.395-16.516-16.516h-8.258c-4.561 0-8.258 3.697-8.258 8.258v16.516c0 4.561 3.697 8.258 8.258 8.258h280.774c4.561 0 8.258-3.697 8.258-8.258v-8.258z"/><path d="m159.028 239.484h22.649c9.122 0 16.516-7.395 16.516-16.516v-222.968h-8.258c-4.561 0-8.258 3.697-8.258 8.258v214.71h-73.657c-6.924 0-10.774 8.01-6.448 13.417l147.979 184.974c3.306 4.132 9.591 4.132 12.897 0l2.84-3.55-119.241-151.598c-8.523-10.836-.804-26.727 12.981-26.727z"/></g></g></svg>