<svg id="Capa_1" enable-background="new 0 0 512 512" height="512" viewBox="0 0 512 512" width="512" xmlns="http://www.w3.org/2000/svg"><g><circle cx="236.322" cy="182.838" fill="#ffe5e7" r="182.838"/><circle cx="236.322" cy="182.838" fill="#ffcbd0" r="157.905"/><circle cx="236.322" cy="182.838" fill="#ff97a2" r="132.973"/><circle cx="236.322" cy="182.838" fill="#ffcbd0" r="108.04"/><circle cx="236.322" cy="182.838" fill="#fff" r="83.108"/><path d="m455.051 333.826-197.611-141.974-8.852 11.731 27.366 231.42 67.765-56.036 64.289 124.235 31.276-17.158-.342-9.653-68.149-104.602 81.681-23.22c6.689-1.901 8.224-10.686 2.577-14.743z" fill="#615260"/><path d="m438.942 476.391-19.622 11.327c-4.127 2.383-9.408.814-11.566-3.435l-52.138-102.699c-5.068-9.984-18.358-12.202-26.394-4.406l-36.255 35.169c-4.991 4.842-13.367 1.779-14.056-5.141l-21.471-215.354-3.051-2.192c-5.81-4.175-13.829.455-13.119 7.574l24.521 245.863c.69 6.919 9.066 9.982 14.056 5.14l60.95-59.129 60.077 118.342c2.157 4.249 7.439 5.818 11.566 3.435l27.994-16.162c4.127-2.383 5.409-7.741 2.807-11.734z" fill="#4e3d4d"/></g></svg>