<svg id="Capa_1" enable-background="new 0 0 512 512" height="512" viewBox="0 0 512 512" width="512" xmlns="http://www.w3.org/2000/svg"><g><path d="m156.391 413.823-16.29 39.747 16.799 18.515c5.167 1.826 10.726 2.82 16.518 2.82 27.365 0 49.548-22.183 49.548-49.548z" fill="#ffcc5c"/><path d="m181.677 425.356h41.29c0-30.858-28.208-55.127-60.245-48.429-18.881 3.947-34.067 19.326-37.836 38.243-5.146 25.831 9.814 49.054 32.014 56.914l.002-21.954c.001-13.682 11.093-24.774 24.775-24.774z" fill="#ffbe45"/><path d="m173.419 144.449c-22.766 0-41.29-18.524-41.29-41.29s18.524-41.29 41.29-41.29 41.29 18.524 41.29 41.29-18.524 41.29-41.29 41.29zm0-66.065c-13.661 0-24.774 11.113-24.774 24.774s11.113 24.774 24.774 24.774 24.774-11.113 24.774-24.774-11.112-24.774-24.774-24.774z" fill="#ffeca8"/><path d="m346.839 380.091c0-10.749-6.916-20.337-17.18-23.527-23.536-7.316-40.626-29.267-40.626-55.21v-49.549c0-63.839-51.779-115.433-115.613-115.454l-10.139 9.88c-59.089 5.138-91.269 54.591-91.269 115.013l5.864 139.338h260.705c4.561 0 8.258-3.697 8.258-8.258z" fill="#ffdc78"/><path d="m115.613 392.324c-9.122 0-16.516-7.395-16.516-16.516v-148.645c0-36.011 25.61-66.039 59.61-72.867 8.557-1.718 14.712-9.217 14.712-17.945-63.834.02-115.613 51.615-115.613 115.454v49.548c0 25.942-17.09 47.894-40.625 55.21-10.264 3.191-17.181 12.779-17.181 23.528v20.359c0 4.561 3.697 8.258 8.258 8.258h330.323c4.561 0 8.258-3.697 8.258-8.258v-8.126z" fill="#ffcc5c"/><path d="m478.968 37.095h-198.194c-6.016 0-11.657 1.608-16.515 4.419l-10.257 28.614v140.926c0 18.243 14.789 33.032 33.032 33.032h191.934l28.537-8.666c2.858-4.888 4.495-10.576 4.495-16.647v-148.645c0-18.243-14.789-33.033-33.032-33.033z" fill="#ff7e8e"/><path d="m379.871 185.739c-4.565 0-8.258-3.698-8.258-8.258v-90.838c0-4.56 3.694-8.258 8.258-8.258s8.258 3.698 8.258 8.258v90.839c0 4.56-3.694 8.257-8.258 8.257z" fill="#fff"/><path d="m264.258 218.905v-177.392c-9.832 5.722-16.516 16.419-16.516 28.615v148.645c0 18.243 14.789 33.032 33.032 33.032h41.29v37.87c0 7.357 8.895 11.041 14.097 5.839l43.709-43.709h99.097c12.142 0 22.798-6.624 28.538-16.384h-226.731c-9.121 0-16.516-7.395-16.516-16.516z" fill="#fb5f7a"/><circle cx="379.871" cy="210.647" fill="#fff" r="8.258"/></g></svg>