<svg id="Capa_1" enable-background="new 0 0 512 512" height="512" viewBox="0 0 512 512" width="512" xmlns="http://www.w3.org/2000/svg"><g><path d="m44.633 247.742v233.723c0 13.682 11.092 24.774 24.774 24.774h339.367l24.675-16.778c.066-.736.099-1.482.099-2.235v-239.484z" fill="#ffdc78"/><path d="m400.517 217.463h-330.323l-33.032 30.279 33.032 30.279 330.322.001 33.032-30.28z" fill="#ffbe45"/><path d="m189.516 362.022c25.258-23.153 70.959-19.678 96.217 3.475l15.896 3.17s68.64-62.92 98.887-90.646v-195.44c0-4.561-3.697-8.258-8.258-8.258h-305.548l-10.135 199.736 101.43 93.828z" fill="#f7f0d7"/><path d="m328.086 74.323c0 41.047 31.383 71.049 72.43 71.049 23.987 0 45.32-8.089 58.909-25.727 9.665-12.544 15.413-28.262 15.413-45.322.001-41.048-33.275-74.323-74.322-74.323-16.986 0-32.641 5.698-45.158 15.287-17.731 13.583-27.272 34.974-27.272 59.036z" fill="#ff7e8e"/><path d="m414.029 135.132c-41.047 0-74.323-33.275-74.323-74.323 0-16.943 6.106-33.021 15.652-45.522-17.458 13.596-29.165 35.194-29.165 59.035 0 41.047 33.275 74.323 74.323 74.323 23.842 0 45.313-11.543 58.909-29.001-12.501 9.546-28.453 15.488-45.396 15.488z" fill="#fb5f7a"/><path d="m400.516 90.839c-4.565 0-8.258-3.698-8.258-8.258v-41.291c0-4.56 3.694-8.258 8.258-8.258 4.565 0 8.258 3.698 8.258 8.258v41.29c0 4.561-3.693 8.259-8.258 8.259z" fill="#fff"/><path d="m400.597 115.613c-4.565 0-8.298-3.698-8.298-8.258s3.653-8.258 8.218-8.258h.081c4.565 0 8.258 3.698 8.258 8.258-.001 4.56-3.695 8.258-8.259 8.258z" fill="#fff"/><g fill="#ffcc5c"><path d="m326.194 173.419h-181.678c-4.565 0-8.258-3.698-8.258-8.258s3.694-8.258 8.258-8.258h181.677c4.565 0 8.258 3.698 8.258 8.258s-3.693 8.258-8.257 8.258z"/><path d="m326.194 214.71h-181.678c-4.565 0-8.258-3.698-8.258-8.258s3.694-8.258 8.258-8.258h181.677c4.565 0 8.258 3.698 8.258 8.258s-3.693 8.258-8.257 8.258z"/><path d="m326.194 256h-181.678c-4.565 0-8.258-3.698-8.258-8.258s3.694-8.258 8.258-8.258h181.677c4.565 0 8.258 3.698 8.258 8.258.001 4.56-3.693 8.258-8.257 8.258z"/><path d="m326.194 297.29h-181.678c-4.565 0-8.258-3.698-8.258-8.258s3.694-8.258 8.258-8.258h181.677c4.565 0 8.258 3.698 8.258 8.258s-3.693 8.258-8.257 8.258z"/><path d="m301.629 368.668c-2.024 1.855-11.311-3.247-13.29-1.433-2.101 1.926 3.109 10.765 1.069 12.636l126.122 115.613h-317.901c-15.064 0-22.264-18.514-11.16-28.692l94.833-86.922-1.56-10.246-10.661-.956-87.727 80.416c-10.593 9.711-27.676 2.196-27.676-12.175v-174.02l-16.516-15.147v239.484c0 13.682 11.092 24.774 24.774 24.774h346.839c10.771 0 19.92-6.916 23.333-16.516.695-1.942 1.154-3.887 1.342-6.023z"/></g><path d="m301.629 368.668-9.216-8.448c-10.034-9.198-21.908-16.428-35.058-19.944-23.049-6.164-46.563-2.346-65.647 9.554-6.478 4.039-14.754 3.649-20.381-1.509l-76.584-70.201c-5.119-4.693-8.034-11.318-8.034-18.262v-185.535h-8.258c-4.561 0-8.258 3.697-8.258 8.258v195.441l111.109 101.85 9.411-8.627c12.629-11.577 28.636-17.365 44.642-17.365s32.013 5.788 44.641 17.365l9.411 8.627z" fill="#fae6c2"/></g></svg>