<svg id="Capa_1" enable-background="new 0 0 512 512" height="512" viewBox="0 0 512 512" width="512" xmlns="http://www.w3.org/2000/svg"><g><path d="m427.058 191.186c0 42.14-13.633 81.095-36.73 112.696-34.776 47.582-91.007 72.477-154.456 72.477-105.589 0-183.408-79.584-183.408-185.173 0-63.432 23.113-119.65 70.673-154.428 31.608-23.114 70.578-36.758 112.735-36.758 105.589 0 191.186 85.597 191.186 191.186z" fill="#e8e6e8"/><path d="m377.961 292.385c22.774-31.805 35.134-71.545 31.988-114.346-6.271-85.32-75.609-154.659-160.93-160.93-42.801-3.146-82.542 9.213-114.346 31.988-7.766 5.562-17.524-4.094-11.905-11.818.106-.146.263-.375.369-.521-53.188 38.932-85.583 104.733-77.108 177.405 10.124 86.81 80.054 156.741 166.863 166.866 72.673 8.477 138.504-23.958 177.436-77.146-.146.106-.402.301-.548.408-7.725 5.618-17.38-4.14-11.819-11.906z" fill="#d7d4d7"/><circle cx="235.872" cy="191.186" fill="#94d77b" r="157.936"/><circle cx="235.872" cy="191.186" fill="#b4e77a" r="141.311"/><path d="m462.89 374.676-128.814-89.769 2.696 162.692 48.434-38.878 45.013 94.696 31.292-26.744-49.563-72.425 48.611-14.801c6.637-2.02 8.024-10.804 2.331-14.771z" fill="#615260"/><path d="m269.122 199.499v-83.124c0-4.591-3.722-8.312-8.312-8.312h-41.562l-9.317 94.542-23.457 18.244 60.139 56.96 52.964-64.734c4.441-5.427.579-13.576-6.433-13.576z" fill="#fff"/><path d="m465.859 483.028-4.348-6.354-18.775 10.84c-4.193 2.421-9.558.76-11.652-3.605l-38.411-80.106c-2.427-5.062-9.07-6.312-13.171-2.479l-20.385 19.05c-5.069 4.738-13.369 1.546-13.958-5.368l-11.084-130.099-3.204-2.233c-5.779-4.027-13.634.508-13.035 7.526l13.667 160.332c.589 6.913 8.889 10.105 13.958 5.367l37.123-34.698 41.269 86.078c2.093 4.366 7.459 6.026 11.652 3.605l27.649-15.963c4.194-2.421 5.439-7.898 2.705-11.893z" fill="#4e3d4d"/><path d="m206.945 219.78c.912-2.737 2.763-5.017 5.136-6.659 4.325-2.992 7.166-7.963 7.166-13.623v-91.437h-8.312c-4.591 0-8.312 3.722-8.312 8.312v83.124h-24.021c-7.012 0-10.874 8.148-6.433 13.576l57.27 69.998c3.326 4.065 9.541 4.065 12.868 0l4.306-5.263-37.398-45.703c-2.822-3.447-3.678-8.1-2.27-12.325z" fill="#e8f7d8"/></g></svg>