<svg id="Capa_1" enable-background="new 0 0 512 512" height="512" viewBox="0 0 512 512" width="512" xmlns="http://www.w3.org/2000/svg"><g><path d="m127.449 451.048 43.726-80.425-14.286-7.762-50.254 92.433c-2.143 3.94-.683 8.877 3.262 11.02 1.23.671 2.563.988 3.873.988.002 0 .005-.001.008-.001v.001h300.698v-16.254z" fill="#c6c1c6"/><path d="m176.079 375.127c-16.937 0-32.19-10.492-38.095-26.754l-80.952-222.611c-3.492-9.599-12.698-16.048-22.913-16.048h-1.611c-4.492 0-8.127-3.639-8.127-8.127s3.635-8.127 8.127-8.127h1.611c17.032 0 32.373 10.75 38.183 26.75l16.873 46.393h341.555c4.492 0 8.127 3.639 8.127 8.127v140.857c0 16.48-12.341 30.361-28.706 32.286l-229.23 26.968c-1.627.191-3.238.286-4.842.286zm-80.992-192.27 58.167 159.96c3.881 10.679 14.516 17.198 25.762 15.881l229.23-26.968c8.183-.964 14.357-7.901 14.357-16.143v-132.73z" fill="#d7d4d7"/><path d="m430.73 166.603c-17.954 0-32.508 14.554-32.508 32.508 0 15.148 10.359 27.878 24.381 31.486l36.286-15.232c2.766-4.781 4.349-10.333 4.349-16.254 0-17.954-14.554-32.508-32.508-32.508z" fill="#ffbe45"/><circle cx="414.476" cy="459.175" fill="#615260" r="24.381"/><circle cx="113.778" cy="459.175" fill="#615260" r="24.381"/><path d="m430.73 77.206c-13.444 0-24.381-10.937-24.381-24.381s10.936-24.381 24.381-24.381c13.444 0 24.381 10.937 24.381 24.381s-10.936 24.381-24.381 24.381zm0-32.508c-4.484 0-8.127 3.647-8.127 8.127s3.643 8.127 8.127 8.127 8.127-3.647 8.127-8.127-3.643-8.127-8.127-8.127z" fill="#ffeca8"/><g fill="#827f83"><path d="m32.508 109.714h-24.381c-4.488 0-8.127-3.639-8.127-8.127 0-4.488 3.639-8.127 8.127-8.127h24.381z"/><circle cx="113.778" cy="459.175" r="8.127"/><circle cx="414.476" cy="459.175" r="8.127"/></g><path d="m502.498 164.682c-8.744-3.704-14.879-12.365-14.879-22.46v-13.869c0-31.15-24.003-58.313-55.139-59.248-.586-.018-1.17-.026-1.752-.026l-51.005 39.153 9.611 82.752h114.54c4.488 0 8.127-3.638 8.127-8.127v-2.777c-.001-6.517-3.502-12.856-9.503-15.398z" fill="#ffdc78"/><path d="m390.095 166.603v-38.746c0-11.526 4.044-22.979 12.306-31.017 4.417-4.297 9.567-7.442 15.214-9.328 7.616-2.544 13.116-9.188 13.116-17.217v-1.215c-31.412.008-56.889 25.474-56.889 56.889v16.254c0 10.094-6.134 18.755-14.878 22.459-6.001 2.542-9.503 8.882-9.503 15.399v10.904c0 4.488 3.639 8.127 8.127 8.127h146.286c4.488 0 8.127-3.639 8.127-8.127v-8.127h-105.652c-8.977-.001-16.254-7.278-16.254-16.255z" fill="#ffcc5c"/><path d="m437.708 215.365c-8.342 0-15.105 6.763-15.105 15.105v.128c2.612.677 5.304 1.022 8.127 1.022 12.002 0 22.529-6.578 28.16-16.254h-21.182z" fill="#ffcc5c"/></g></svg>