<svg id="Capa_1" enable-background="new 0 0 512 512" height="512" viewBox="0 0 512 512" width="512" xmlns="http://www.w3.org/2000/svg"><g><path d="m384 152h-256c-5.828 0-11.291 1.558-15.998 4.28l-8.79 27.72v136.9c0 17.673 14.327 32 32 32h248.788l27.719-8.9c2.723-4.707 4.281-10.171 4.281-16v-144c0-17.673-14.327-32-32-32z" fill="#ff7e8e"/><path d="m193.812 222.199c-1.469-3.543-4.891-5.828-8.719-5.828-.008 0-.023 0-.031 0-3.836.012-7.258 2.316-8.773 6.043l-23.766 62.398c-1.57 4.129.5 8.75 4.633 10.324 4.086 1.555 8.742-.504 10.32-4.629l3.955-10.387h27.142l3.911 10.363c1.211 3.203 4.25 5.18 7.484 5.18.938 0 1.891-.168 2.828-.52 4.133-1.559 6.219-6.176 4.656-10.309zm-16.288 41.922 7.538-19.797 7.472 19.797z" fill="#fff"/><path d="m280.828 273.613c-.539.645-1.125 1.242-1.734 1.785-3.172 2.828-7.234 4.262-12.055 4.262-13.039 0-23.641-10.605-23.641-23.645s10.602-23.645 23.641-23.645c4.742 0 9.312 1.395 13.211 4.031 3.672 2.48 8.633 1.512 11.109-2.141 2.477-3.66 1.516-8.637-2.141-11.109-6.562-4.438-14.227-6.781-22.18-6.781-21.859 0-39.641 17.785-39.641 39.645s17.781 39.645 39.641 39.645c8.734 0 16.586-2.875 22.703-8.32 1.211-1.078 2.344-2.246 3.383-3.5 2.828-3.398 2.359-8.441-1.031-11.266-3.413-2.828-8.445-2.355-11.265 1.039z" fill="#fff"/><path d="m352 216.371h-34.953c-4.422 0-8 3.582-8 8s3.578 8 8 8h9.406v55.289c0 4.418 3.578 8 8 8s8-3.582 8-8v-55.289h9.547c4.422 0 8-3.582 8-8s-3.578-8-8-8z" fill="#fff"/><g fill="#ffcbd0"><path d="m504 56h-64c-4.422 0-8 3.582-8 8s3.578 8 8 8h44.688l-58.344 58.344c-3.125 3.125-3.125 8.188 0 11.312 1.562 1.562 3.609 2.344 5.656 2.344s4.094-.781 5.656-2.344l58.344-58.344v44.688c0 4.418 3.578 8 8 8s8-3.582 8-8v-64c0-4.418-3.578-8-8-8z"/><path d="m27.312 72h44.688c4.422 0 8-3.582 8-8s-3.578-8-8-8h-64c-4.422 0-8 3.582-8 8v64c0 4.418 3.578 8 8 8s8-3.582 8-8v-44.688l58.344 58.344c1.562 1.563 3.609 2.344 5.656 2.344s4.094-.781 5.656-2.344c3.125-3.125 3.125-8.188 0-11.312z"/><path d="m74.344 370.344-58.344 58.344v-44.688c0-4.418-3.578-8-8-8s-8 3.582-8 8v64c0 4.418 3.578 8 8 8h64c4.422 0 8-3.582 8-8s-3.578-8-8-8h-44.688l58.344-58.344c3.125-3.125 3.125-8.188 0-11.312s-8.187-3.125-11.312 0z"/><path d="m504 376c-4.422 0-8 3.582-8 8v44.688l-58.344-58.344c-3.125-3.125-8.188-3.125-11.312 0s-3.125 8.188 0 11.312l58.344 58.344h-44.688c-4.422 0-8 3.582-8 8s3.578 8 8 8h64c4.422 0 8-3.582 8-8v-64c0-4.418-3.578-8-8-8z"/></g><path d="m112 328v-171.724c-9.525 5.543-16 15.91-16 27.724v144c0 17.673 14.327 32 32 32h256c11.814 0 22.176-6.476 27.719-16h-283.719c-8.837 0-16-7.163-16-16z" fill="#fb5f7a"/></g></svg>