<svg id="Capa_1" enable-background="new 0 0 512 512" height="512" viewBox="0 0 512 512" width="512" xmlns="http://www.w3.org/2000/svg"><g><path d="m379.871 66.064h-313.807c-19.731 0-37.443 8.649-49.548 22.364l-9.661 43.701v304.572c0 36.486 29.578 66.064 66.064 66.064h306.951l43.701-7.283c13.714-12.105 22.364-29.816 22.364-49.546v-313.807c.001-36.486-29.578-66.065-66.064-66.065z" fill="#b4e77a"/><path d="m169.744 396.387 23.506-51.601-15.032-6.846-27.121 59.536 5.806 15.427h181.678v-16.516z" fill="#e8f7d8"/><path d="m334.927 90.839c0 50.169 36.065 86.135 86.234 86.135 29.141 0 55.078-9.019 71.7-30.354 11.994-15.395 19.139-34.754 19.139-55.781 0-50.169-40.67-90.839-90.839-90.839-21.035 0-40.4 7.15-55.797 19.151-21.326 16.623-30.437 42.554-30.437 71.688z" fill="#ff7e8e"/><g fill="#fff"><path d="m427.202 140.044c-4.565 0-8.258-3.698-8.258-8.258v-72.185h-8.944c-4.565 0-8.258-3.698-8.258-8.258s3.694-8.258 8.258-8.258h17.202c4.565 0 8.258 3.698 8.258 8.258v80.444c0 4.56-3.694 8.257-8.258 8.257z"/><path d="m197.75 351.782c-13.702 0-26.194-8.581-31-21.609l-46.645-126.577c-1.194-3.23-4.306-5.403-7.75-5.403h-5c-4.565 0-8.258-3.698-8.258-8.258s3.694-8.258 8.258-8.258h5c10.331 0 19.669 6.512 23.25 16.206l6.202 16.827h213.29c4.565 0 8.258 3.698 8.258 8.258v84.585c0 17.028-13.29 31.484-30.25 32.915l-132.581 11.198c-.927.076-1.855.116-2.774.116zm-49.863-120.556 34.363 93.238c2.556 6.948 9.403 11.367 16.887 10.742l132.581-11.198c8.476-.714 15.121-7.944 15.121-16.456v-76.327h-198.952z"/><circle cx="156.903" cy="404.645" r="16.516"/><circle cx="338.581" cy="404.645" r="16.516"/></g><path d="m66.065 495.484c-27.365 0-49.548-22.183-49.548-49.548v-357.508c-10.25 11.639-16.517 26.973-16.517 43.701v313.806c0 36.487 29.578 66.065 66.065 66.065h313.806c16.728 0 32.062-6.269 43.701-16.518z" fill="#94d77b"/><path d="m82.581 198.194h24.774v-16.516h-24.774c-4.561 0-8.258 3.697-8.258 8.258 0 4.56 3.697 8.258 8.258 8.258z" fill="#e8f7d8"/><path d="m437.677 165.161c-50.169 0-90.839-40.67-90.839-90.839 0-20.708 6.859-39.892 18.526-55.171-21.338 16.617-35.042 42.547-35.042 71.688 0 50.169 40.67 90.839 90.839 90.839 29.14 0 55.083-13.72 71.7-35.058-15.279 11.666-34.475 18.541-55.184 18.541z" fill="#fb5f7a"/></g></svg>